<?xml version="1.0" standalone="no"?>
<!DOCTYPE svg PUBLIC "-//W3C//DTD SVG 20010904//EN"
 "http://www.w3.org/TR/2001/REC-SVG-20010904/DTD/svg10.dtd">
<svg version="1.0" xmlns="http://www.w3.org/2000/svg"
 width="563.000000pt" height="563.000000pt" viewBox="0 0 563.000000 563.000000"
 preserveAspectRatio="xMidYMid meet">
<metadata>
Created by potrace 1.11, written by Peter Selinger 2001-2013
</metadata>
<g transform="translate(0.000000,563.000000) scale(0.100000,-0.100000)"
fill="#000000" stroke="none">
<path d="M1810 4920 c0 -3 -12 -6 -28 -7 -35 -4 -51 -8 -85 -21 -16 -7 -32
-12 -36 -12 -12 0 -102 -70 -129 -100 -23 -26 -93 -137 -97 -155 -1 -5 -5 -17
-8 -25 -11 -29 -31 -105 -33 -130 -1 -14 -3 -26 -4 -27 -3 -4 -7 -20 -9 -37 0
-8 -11 -18 -23 -22 -30 -9 -98 -75 -98 -94 0 -9 -5 -21 -11 -27 -18 -18 -20
-104 -3 -127 8 -11 14 -27 14 -36 0 -21 56 -73 93 -86 30 -10 34 -19 40 -89 2
-17 6 -36 11 -43 4 -7 6 -16 3 -18 -3 -3 -1 -19 4 -36 5 -17 11 -50 15 -72 7
-47 12 -71 14 -71 2 0 9 -28 12 -50 3 -20 -33 -38 -92 -46 -14 -2 -28 -7 -31
-12 -3 -4 -15 -9 -26 -11 -28 -6 -127 -40 -133 -46 -3 -3 -9 -6 -15 -7 -5 -1
-24 -8 -42 -15 -28 -10 -35 -10 -51 5 -10 9 -22 14 -25 10 -4 -3 -7 -2 -7 4 0
5 -6 10 -12 11 -7 1 -29 3 -48 5 -69 8 -167 -50 -192 -113 -6 -14 -13 -43 -15
-64 -5 -43 -21 -81 -30 -72 -3 3 -42 -32 -87 -77 -99 -99 -142 -172 -173 -288
-10 -39 -12 -139 -2 -139 5 0 9 -5 9 -11 0 -5 -5 -7 -11 -3 -7 4 -6 -3 2 -17
7 -13 14 -30 15 -38 5 -26 63 -136 89 -166 51 -60 130 -135 142 -135 7 0 13
-4 13 -10 0 -22 195 -136 345 -201 50 -22 98 -44 108 -49 10 -6 22 -8 27 -5 6
4 10 2 10 -2 0 -9 87 -38 103 -35 4 1 7 -2 7 -7 0 -5 8 -8 18 -7 9 2 19 0 22
-5 3 -4 21 -11 40 -14 32 -6 49 -19 50 -37 0 -5 -4 -8 -9 -8 -5 0 -8 -8 -6
-17 1 -10 -1 -25 -5 -33 -5 -8 -11 -33 -14 -55 -3 -22 -9 -53 -13 -70 -3 -16
-7 -39 -9 -50 -1 -11 -3 -20 -4 -20 -1 0 -3 -11 -5 -25 -2 -14 -7 -56 -11 -95
-9 -75 -9 -350 0 -400 3 -16 7 -47 10 -67 10 -75 76 -238 96 -238 6 0 9 -4 6
-9 -3 -5 19 -34 50 -65 85 -85 185 -126 314 -129 52 -1 151 13 172 24 10 5 18
7 18 4 0 -3 9 -1 21 5 11 6 28 13 37 15 9 1 44 15 77 31 33 15 62 28 65 28 8
2 155 89 160 95 3 3 34 26 69 50 66 45 93 67 142 111 50 45 69 60 69 52 0 -4
9 7 20 23 11 17 20 27 20 23 0 -4 15 9 34 27 18 19 36 35 40 35 4 0 32 -25 62
-55 30 -30 58 -55 62 -55 4 0 30 -22 58 -48 68 -63 92 -82 103 -82 5 0 11 -7
15 -15 3 -8 2 -15 -3 -15 -10 0 -8 -22 8 -88 10 -40 24 -63 54 -93 22 -21 43
-37 45 -34 3 3 11 0 18 -6 31 -26 185 -6 198 26 5 14 40 10 62 -6 6 -5 14 -6
17 -2 4 3 7 0 7 -7 0 -7 3 -10 6 -7 4 3 16 1 27 -5 12 -6 33 -12 47 -13 14 -1
43 -5 65 -10 135 -28 300 16 393 106 72 69 136 186 158 289 4 19 9 42 11 50
21 99 23 470 3 470 -8 0 -6 37 3 46 4 4 3 12 -2 18 -4 6 -11 29 -15 51 -4 22
-10 51 -12 65 -3 14 -6 36 -8 50 -2 14 -11 51 -19 84 -13 49 -14 61 -3 72 8 7
16 11 18 8 3 -2 52 12 109 31 57 20 111 37 120 39 9 3 25 9 35 15 18 10 59 27
76 30 4 1 51 24 103 51 52 27 95 47 95 45 0 -2 12 7 26 20 15 14 33 25 40 25
8 0 14 4 14 9 0 5 9 12 20 16 21 7 61 39 126 101 24 23 46 39 49 36 3 -3 5 -1
5 5 0 5 9 21 20 34 12 12 31 39 42 59 12 19 26 38 31 41 5 3 8 9 7 13 -2 8 28
94 42 120 7 14 7 16 -4 10 -10 -6 -10 -5 -2 7 16 21 19 113 3 103 -7 -4 -9 -3
-6 3 9 14 -21 126 -36 135 -7 4 -9 8 -4 8 10 0 -42 80 -88 135 -43 51 -167
155 -184 155 -6 0 -11 4 -11 8 0 5 -12 15 -27 23 -16 8 -30 17 -33 20 -6 7
-207 107 -265 131 -80 34 -204 76 -210 70 -3 -3 -5 0 -5 6 0 7 -3 11 -7 11 -5
-1 -11 0 -15 1 -10 3 -16 4 -60 13 -28 6 -36 12 -35 27 1 11 5 20 10 20 4 0 6
3 3 8 -2 4 2 34 10 67 7 33 16 76 19 95 3 19 7 46 10 60 3 14 7 39 9 55 8 60
18 85 35 85 26 0 104 90 106 122 0 3 3 10 7 14 4 4 3 13 -3 21 -8 9 -8 13 -1
13 6 0 9 6 7 13 -2 6 -9 31 -15 55 -11 44 -53 93 -101 118 -20 10 -26 20 -24
39 2 14 0 25 -5 25 -4 0 -6 11 -5 23 3 27 -41 161 -73 223 -49 96 -190 210
-266 216 -14 1 -26 5 -26 9 0 4 -13 6 -30 5 -16 -1 -30 2 -30 7 0 5 -8 3 -17
-4 -11 -10 -14 -10 -9 -1 7 12 -6 17 -17 6 -4 -4 -33 -8 -64 -9 -32 -1 -58 -3
-58 -4 0 -2 -11 -5 -25 -8 -33 -6 -42 -9 -60 -16 -45 -20 -100 -35 -100 -29 0
4 -4 2 -8 -4 -4 -7 -37 -26 -74 -43 -38 -17 -68 -35 -68 -41 0 -5 -3 -9 -7 -8
-11 3 -123 -65 -123 -74 0 -5 -5 -8 -10 -8 -8 0 -131 -90 -150 -110 -3 -3 -23
-20 -45 -39 -22 -18 -65 -57 -95 -86 l-56 -53 -82 78 c-45 42 -82 76 -82 74 0
-2 -8 4 -18 14 -40 38 -180 142 -192 142 -6 0 -10 4 -10 9 0 5 -13 14 -30 21
-16 7 -30 17 -30 22 0 5 -5 6 -10 3 -6 -3 -13 1 -16 9 -3 9 -14 16 -24 16 -11
0 -22 4 -25 10 -7 11 -96 54 -107 52 -5 -1 -8 2 -8 7 0 5 -12 11 -27 14 -16 3
-41 11 -58 18 -16 7 -34 11 -39 10 -4 -1 -13 2 -20 7 -6 5 -19 8 -28 7 -10 -2
-18 0 -18 3 0 6 -32 10 -137 16 -18 1 -33 -1 -33 -4z m1980 -150 c0 -3 10 -6
23 -8 58 -4 177 -83 177 -117 0 -7 4 -15 8 -17 12 -5 52 -95 52 -116 0 -10 5
-23 12 -30 7 -7 8 -12 4 -12 -5 0 -3 -7 4 -15 9 -11 9 -15 1 -15 -7 0 -9 -5
-4 -12 16 -27 11 -44 -26 -78 -58 -53 -71 -81 -73 -161 -1 -42 34 -129 51
-129 4 0 19 -12 35 -26 22 -21 25 -29 14 -35 -11 -7 -11 -9 1 -9 10 0 11 -3 2
-13 -6 -8 -8 -16 -5 -19 3 -3 1 -23 -5 -44 -5 -22 -12 -56 -15 -76 -3 -21 -11
-57 -16 -80 -6 -24 -13 -54 -16 -67 -9 -41 -15 -43 -74 -24 -8 2 -15 4 -15 4
0 0 -18 4 -40 10 -22 5 -60 12 -85 14 -54 6 -67 22 -63 74 2 31 -2 46 -21 66
-13 14 -32 25 -43 25 -11 0 -26 7 -33 15 -7 8 -16 12 -21 9 -5 -3 -9 0 -9 5 0
6 -9 11 -21 11 -11 0 -17 4 -14 10 3 5 0 7 -8 4 -8 -3 -18 0 -22 6 -6 9 -10 9
-16 -1 -7 -11 -9 -11 -9 2 0 11 -8 15 -25 14 -14 -2 -28 2 -32 7 -4 7 -1 8 7
3 9 -5 11 -4 6 4 -4 6 -16 9 -27 6 -10 -4 -19 -2 -19 2 0 5 -13 8 -30 7 -16
-1 -27 2 -24 7 3 5 -6 10 -20 11 -46 2 -51 3 -56 8 -3 3 -16 11 -29 18 -22 13
-23 12 -17 -3 5 -15 4 -16 -9 -5 -8 7 -15 9 -15 4 0 -4 -5 -3 -12 4 -9 9 -15
9 -27 -1 -12 -10 -13 -9 -6 2 6 11 3 13 -13 9 -14 -4 -20 -2 -15 5 4 7 0 8
-13 3 -10 -4 -15 -4 -12 -1 4 4 -9 22 -28 40 -19 18 -34 35 -34 38 0 6 -67 82
-117 134 -51 52 -51 52 50 138 38 33 77 67 86 76 9 8 34 29 56 45 49 36 54 39
84 64 13 11 36 25 52 32 16 7 29 16 29 21 0 4 8 11 18 15 9 4 51 25 92 47 41
21 80 40 85 41 6 2 37 13 70 24 33 12 84 23 113 25 29 1 55 5 57 7 6 6 45 4
45 -2z m-1809 -14 c72 -16 229 -84 229 -98 0 -6 7 -8 15 -4 8 3 15 1 15 -4 0
-6 7 -10 15 -10 8 0 15 -4 15 -10 0 -5 5 -10 10 -10 16 0 161 -103 243 -173
12 -11 42 -35 66 -55 25 -21 52 -45 60 -56 9 -10 24 -26 33 -35 16 -16 15 -19
-25 -62 -23 -24 -64 -71 -92 -104 -75 -89 -113 -125 -130 -125 -9 0 -13 5 -9
11 3 6 -8 3 -25 -5 -22 -12 -31 -13 -31 -4 0 6 -7 3 -16 -8 -8 -10 -13 -14
-10 -7 4 6 2 14 -3 17 -5 3 -11 -4 -15 -17 -5 -19 -8 -20 -17 -7 -8 11 -12 12
-16 2 -2 -6 -8 -10 -13 -7 -4 3 -13 -2 -20 -10 -7 -8 -17 -15 -23 -15 -6 0 -2
7 9 16 19 15 19 16 -1 8 -11 -4 -30 -8 -42 -8 -14 -1 -18 -5 -12 -12 6 -8 2
-10 -16 -9 -14 2 -25 -1 -25 -5 0 -5 -9 -7 -20 -5 -11 2 -20 -1 -20 -7 0 -6
-6 -6 -15 2 -13 11 -14 10 -9 -5 5 -13 4 -16 -4 -11 -7 4 -12 2 -12 -3 0 -6
-5 -11 -11 -11 -5 0 -7 6 -3 13 5 8 2 8 -9 -2 -9 -7 -17 -10 -17 -7 0 4 -6 1
-14 -6 -8 -7 -12 -17 -9 -21 3 -5 -4 -4 -16 2 -18 10 -23 9 -31 -11 -5 -13 -9
-17 -9 -9 -1 11 -4 11 -16 1 -8 -7 -15 -9 -15 -4 0 4 -6 -1 -14 -11 -8 -11
-19 -16 -30 -12 -10 4 -15 3 -11 -3 3 -5 -3 -14 -14 -19 -15 -9 -19 -20 -17
-56 1 -25 0 -49 -4 -54 -7 -13 -98 -33 -111 -26 -5 4 -9 1 -9 -5 0 -7 -7 -10
-15 -7 -8 4 -17 2 -21 -4 -3 -6 -11 -8 -17 -6 -7 2 -19 1 -28 -4 -11 -6 -21
-4 -29 6 -7 8 -10 15 -7 15 3 0 0 21 -8 47 -8 25 -13 49 -13 52 1 3 -2 22 -7
41 -5 19 -8 43 -6 53 1 9 -3 17 -10 17 -8 0 -8 4 1 15 7 8 8 15 3 15 -6 0 -9
10 -9 23 1 12 0 27 -3 32 -13 23 -10 45 5 45 18 0 74 50 74 65 0 6 5 16 12 23
27 27 29 115 5 166 -25 52 -67 96 -90 96 -16 0 -18 6 -12 48 4 26 8 53 8 60 0
6 3 12 6 12 4 0 8 11 9 24 2 23 51 127 75 156 23 30 87 72 129 86 42 13 160
13 219 0z m935 -698 c15 -15 14 -16 -17 -14 -19 2 -37 -2 -41 -8 -5 -8 -8 -7
-8 2 0 6 -9 12 -21 12 -13 0 -18 -4 -13 -12 6 -10 4 -10 -7 -2 -8 5 -38 9 -66
9 -56 -2 -66 7 -33 27 11 7 20 17 20 21 0 5 17 26 37 48 l37 39 48 -52 c26
-29 55 -61 64 -70z m894 -513 c5 3 11 1 14 -4 4 -5 14 -8 24 -6 9 1 24 -1 33
-6 9 -5 31 -10 48 -11 17 -1 33 -8 35 -15 3 -7 1 -13 -4 -13 -5 0 -7 -9 -5
-20 2 -11 0 -20 -6 -20 -5 0 -9 -9 -9 -20 0 -19 -7 -20 -103 -20 l-102 0 1 64
c2 79 7 88 40 76 14 -6 29 -8 34 -5z m-1983 -2 c-4 -3 -1 -13 6 -21 10 -13 9
-14 -1 -8 -16 10 -13 -25 3 -36 6 -5 5 -8 -2 -8 -7 0 -13 -5 -13 -11 0 -5 4
-8 9 -5 4 3 6 -6 3 -19 -4 -24 -7 -25 -83 -25 l-78 0 -11 41 c-13 48 -8 69 17
70 10 0 25 2 33 4 24 6 104 23 114 24 5 1 6 -2 3 -6z m-331 -81 c6 -4 15 -23
20 -42 10 -44 9 -42 18 -62 5 -10 -2 -33 -16 -60 -21 -40 -23 -55 -23 -198 0
-171 8 -210 54 -254 21 -21 46 -30 97 -39 38 -6 70 -12 72 -12 2 -2 -8 -27
-58 -140 -10 -22 -21 -50 -24 -62 -6 -20 -15 -22 -74 -25 l-67 -3 -3 -117 c-2
-112 -2 -118 17 -118 23 0 36 -16 21 -25 -5 -3 -10 -13 -10 -21 0 -8 -7 -31
-15 -51 -11 -26 -18 -33 -28 -26 -13 11 -44 21 -92 29 -16 4 -33 11 -37 17 -4
7 -8 8 -8 4 0 -5 -6 -5 -12 0 -7 4 -17 8 -23 9 -9 2 -61 22 -147 55 -55 22
-205 102 -273 147 -124 82 -255 233 -255 293 0 10 -3 20 -7 22 -13 8 -5 104
12 157 17 54 118 175 179 215 25 17 28 17 66 0 43 -19 146 -17 172 4 71 58 97
97 101 157 3 28 10 40 30 51 15 7 27 10 27 6 0 -4 4 -2 8 4 4 7 19 14 32 15
14 2 27 6 30 9 4 5 186 67 200 68 3 0 10 -3 16 -7z m2734 -26 c39 -14 71 -25
73 -25 2 0 35 -10 57 -18 8 -4 22 -7 30 -9 8 -2 16 -8 18 -14 2 -5 7 -8 11 -6
4 3 42 -13 86 -35 44 -21 85 -39 92 -39 7 0 13 -4 13 -10 0 -5 11 -12 25 -16
14 -3 25 -10 25 -15 0 -5 5 -9 11 -9 6 0 26 -12 45 -26 19 -15 34 -24 34 -21
0 6 9 -2 87 -74 126 -117 169 -215 150 -339 -4 -27 -58 -130 -68 -130 -5 0 -9
-5 -9 -12 0 -28 -131 -135 -275 -225 -62 -39 -231 -113 -239 -105 -3 3 -6 1
-6 -5 0 -5 -27 -18 -60 -28 -33 -10 -60 -22 -60 -27 0 -5 -4 -7 -9 -4 -5 4
-22 1 -38 -5 -29 -12 -37 -14 -92 -25 -26 -5 -32 -4 -26 6 4 7 3 15 -3 19 -5
3 -12 20 -15 36 -2 17 -12 47 -20 67 -14 33 -14 38 0 50 9 7 24 31 34 53 16
35 19 69 19 250 0 199 -1 213 -22 255 -25 48 -77 90 -114 90 -26 0 -26 9 1 73
16 40 23 47 46 47 28 0 28 0 32 88 5 91 9 121 19 137 7 13 22 68 20 76 -2 11
56 0 128 -25z m-2403 -282 c-3 -4 -2 -16 4 -27 6 -11 7 -17 1 -13 -5 3 -9 -6
-9 -19 0 -22 2 -24 16 -13 10 8 8 4 -4 -10 -18 -22 -20 -22 -32 -6 -7 10 -13
26 -13 35 0 10 -4 21 -10 24 -23 14 -10 35 22 35 17 0 28 -3 25 -6z m2007 -16
c-16 -53 -35 -88 -47 -88 -15 0 -46 20 -32 20 6 0 4 4 -2 8 -13 8 -24 67 -15
77 3 3 27 5 54 5 46 0 49 -1 42 -22z m63 -360 c-3 -8 -6 -5 -6 6 -1 11 2 17 5
13 3 -3 4 -12 1 -19z m-2062 -139 c-4 -5 -2 -9 3 -9 5 0 12 -8 16 -17 3 -10 9
-24 12 -30 4 -9 -6 -13 -35 -13 -43 0 -49 13 -26 50 5 8 10 18 11 23 1 4 2 10
3 13 0 3 6 2 11 -1 6 -4 8 -11 5 -16z m1985 -61 c0 -5 -18 -8 -40 -8 -22 0
-40 2 -40 5 0 2 10 23 21 46 l22 41 18 -39 c10 -21 18 -41 19 -45z m-1826
-254 c9 -3 16 -12 16 -20 0 -8 5 -14 10 -14 6 0 10 -5 10 -10 0 -9 35 -65 50
-80 3 -3 11 -14 18 -25 7 -11 21 -33 32 -50 28 -42 25 -52 -10 -47 -16 2 -30
8 -30 13 0 6 -9 5 -20 -1 -11 -6 -20 -7 -20 -2 0 5 -12 9 -27 10 -28 1 -44 3
-142 22 -29 5 -57 7 -62 4 -5 -3 -9 -1 -9 5 0 5 -8 10 -17 9 -24 0 -71 9 -110
21 -17 5 -35 6 -39 3 -4 -4 -5 0 -2 8 3 8 16 48 29 88 l23 72 142 0 c78 0 149
-3 158 -6z m1923 0 c-3 -4 0 -16 8 -28 8 -11 15 -30 15 -41 0 -12 5 -26 12
-33 7 -7 9 -12 5 -12 -4 0 -3 -9 3 -19 8 -16 6 -21 -13 -27 -12 -4 -31 -8 -42
-9 -11 -2 -38 -7 -60 -13 -22 -6 -56 -13 -75 -16 -19 -3 -46 -8 -60 -11 -14
-3 -43 -8 -65 -10 -22 -3 -56 -7 -75 -10 -68 -11 -120 -12 -120 -3 0 5 7 11
15 14 8 4 13 10 10 14 -3 5 1 14 8 22 7 7 37 52 66 101 l52 87 161 0 c89 0
158 -3 155 -6z m-2202 -323 c22 -6 60 -13 85 -17 25 -3 48 -8 51 -10 4 -2 31
-6 60 -10 59 -7 84 -11 84 -14 0 -1 16 -4 35 -5 19 -2 55 -6 80 -9 25 -3 68
-8 95 -12 28 -3 54 -7 60 -7 5 -1 32 -33 59 -72 28 -38 58 -77 68 -86 10 -9
18 -20 18 -24 0 -8 116 -152 143 -176 9 -9 17 -19 17 -22 0 -3 10 -17 23 -30
12 -13 41 -44 65 -69 l43 -46 -57 -53 c-32 -30 -64 -62 -73 -71 -8 -10 -20
-18 -25 -18 -5 0 -16 -8 -25 -18 -42 -47 -311 -232 -311 -215 0 5 -4 3 -8 -2
-17 -24 -172 -84 -254 -99 -15 -2 -32 -7 -37 -10 -5 -4 -13 -2 -16 4 -4 7 -12
7 -18 2 -10 -7 -51 -9 -59 -3 -2 2 -14 4 -28 7 -35 6 -83 26 -98 41 -7 7 -19
16 -27 20 -26 15 -85 115 -104 177 -24 77 -32 123 -36 206 -2 36 -4 65 -5 65
-1 0 -3 12 -4 28 -1 15 1 27 4 27 3 0 5 30 6 68 1 37 5 96 9 132 4 36 8 73 8
83 1 9 5 17 10 17 5 0 7 6 4 13 -4 10 15 108 38 197 2 8 4 19 4 23 1 9 55 3
116 -12z m2297 6 c1 -13 5 -29 8 -37 1 -3 3 -13 5 -24 2 -10 8 -39 14 -65 6
-25 13 -62 15 -81 3 -19 5 -35 6 -35 5 0 11 -49 14 -107 2 -36 6 -70 8 -75 7
-11 2 -271 -6 -308 -21 -101 -39 -165 -48 -165 -5 0 -6 -4 -3 -10 3 -5 1 -10
-6 -10 -7 0 -9 -3 -6 -6 8 -9 -5 -33 -46 -82 -19 -23 -37 -38 -41 -35 -3 4 -6
1 -6 -5 0 -7 -7 -12 -15 -12 -8 0 -15 -4 -15 -9 0 -9 -37 -22 -72 -26 -10 -2
-19 -3 -20 -5 -8 -6 -88 -5 -88 2 0 4 -6 5 -13 2 -16 -6 -90 10 -133 27 -32
13 -39 16 -54 18 -5 0 -7 18 -4 41 4 28 2 40 -6 40 -7 0 -10 8 -7 20 3 11 1
20 -3 20 -5 0 -11 8 -14 18 -4 9 -30 32 -59 51 -46 31 -60 35 -119 35 -51 0
-72 -4 -87 -18 -20 -19 -22 -18 -68 18 -59 46 -135 112 -192 166 l-43 41 28
31 c16 18 43 46 61 65 18 18 30 33 28 33 -2 0 8 13 23 29 15 15 34 37 42 47 8
11 35 44 60 75 25 30 54 68 65 83 11 15 27 36 37 47 9 11 31 42 50 69 20 30
41 50 53 51 11 1 39 2 62 3 24 0 43 3 43 6 0 3 12 5 28 6 15 0 50 4 77 9 28 4
59 8 70 9 47 5 140 21 150 26 3 1 13 3 23 5 68 8 123 19 126 24 8 12 76 11 78
-2z m-908 -152 c-10 -8 -15 -15 -11 -15 4 0 -3 -11 -17 -24 -15 -13 -26 -26
-26 -30 0 -7 -3 -12 -43 -57 -12 -14 -40 -47 -62 -73 -22 -27 -63 -73 -90
-103 -58 -63 -47 -66 -145 46 -30 35 -59 69 -65 75 -5 6 -26 32 -45 56 -19 25
-38 47 -42 48 -4 2 -8 10 -8 18 0 9 -5 12 -12 8 -7 -4 -8 -3 -4 4 4 7 3 12 -2
12 -5 0 -12 9 -15 21 -5 18 -3 18 11 7 9 -7 20 -17 24 -23 4 -5 8 -6 8 -1 0 5
10 1 22 -10 12 -10 19 -14 15 -8 -3 6 0 11 8 11 8 0 12 -4 9 -9 -3 -4 4 -8 15
-8 12 0 21 -4 21 -8 0 -4 12 -9 27 -10 15 -1 30 -8 35 -15 6 -9 8 -8 8 3 0 12
2 13 9 1 5 -7 14 -11 20 -7 7 5 9 1 5 -8 -6 -15 7 -22 31 -16 6 1 16 3 23 4 8
1 17 7 20 12 9 13 45 27 38 15 -6 -9 47 8 80 26 12 7 24 9 28 6 3 -3 6 -1 6 6
0 7 4 10 9 7 5 -3 14 1 21 9 7 8 16 13 20 10 4 -3 11 2 14 11 3 8 9 13 13 11
5 -3 17 -1 28 4 32 12 40 10 19 -6z"/>
</g>
</svg>
